HIERARCHY
ROOT Hips
{
	OFFSET 0.00000 0.00000 0.00000
	CHANNELS 6 Xposition Yposition Zposition Zrotation Yrotation Xrotation 
	JOINT LHipJoint
	{
		OFFSET 0 0 0
		CHANNELS 3 Zrotation Yrotation Xrotation
		JOINT LeftUpLeg
		{
			OFFSET 1.74857 -1.85566 0.69197
			CHANNELS 3 Zrotation Yrotation Xrotation
			JOINT LeftLeg
			{
				OFFSET 2.40003 -6.59403 0.00000
				CHANNELS 3 Zrotation Yrotation Xrotation
				JOINT LeftFoot
				{
					OFFSET 2.82169 -7.75254 0.00000
					CHANNELS 3 Zrotation Yrotation Xrotation
					JOINT LeftToeBase
					{
						OFFSET 0.16466 -0.45240 2.26890
						CHANNELS 3 Zrotation Yrotation Xrotation
						End Site
						{
							OFFSET 0.00000 -0.00000 1.16486
						}
					}
				}
			}
		}
	}
	JOINT RHipJoint
	{
		OFFSET 0 0 0
		CHANNELS 3 Zrotation Yrotation Xrotation
		JOINT RightUpLeg
		{
			OFFSET -1.64169 -1.85566 0.69197
			CHANNELS 3 Zrotation Yrotation Xrotation
			JOINT RightLeg
			{
				OFFSET -2.41814 -6.64379 0.00000
				CHANNELS 3 Zrotation Yrotation Xrotation
				JOINT RightFoot
				{
					OFFSET -2.80588 -7.70911 0.00000
					CHANNELS 3 Zrotation Yrotation Xrotation
					JOINT RightToeBase
					{
						OFFSET -0.19098 -0.52472 2.25401
						CHANNELS 3 Zrotation Yrotation Xrotation
						End Site
						{
							OFFSET -0.00000 -0.00000 1.16333
						}
					}
				}
			}
		}
	}
	JOINT LowerBack
	{
		OFFSET 0 0 0
		CHANNELS 3 Zrotation Yrotation Xrotation
		JOINT Spine
		{
			OFFSET -0.02828 2.14690 -0.11061
			CHANNELS 3 Zrotation Yrotation Xrotation
			JOINT Spine1
			{
				OFFSET -0.00167 2.15299 0.00759
				CHANNELS 3 Zrotation Yrotation Xrotation
				JOINT Neck
				{
					OFFSET 0 0 0
					CHANNELS 3 Zrotation Yrotation Xrotation
					JOINT Neck1
					{
						OFFSET -0.09296 1.90118 0.07197
						CHANNELS 3 Zrotation Yrotation Xrotation
						JOINT Head
						{
							OFFSET 0.08490 1.89526 -0.24604
							CHANNELS 3 Zrotation Yrotation Xrotation
							End Site
							{
								OFFSET 0.03186 1.92109 -0.09483
							}
						}
					}
				}
				JOINT LeftShoulder
				{
					OFFSET 0 0 0
					CHANNELS 3 Zrotation Yrotation Xrotation
					JOINT LeftArm
					{
						OFFSET 3.21569 1.44644 -0.03720
						CHANNELS 3 Zrotation Yrotation Xrotation
						JOINT LeftForeArm
						{
							OFFSET 5.47651 -0.00000 -0.00000
							CHANNELS 3 Zrotation Yrotation Xrotation
							JOINT LeftHand
							{
								OFFSET 3.09058 -0.00000 -0.00000
								CHANNELS 3 Zrotation Yrotation Xrotation
								JOINT LeftFingerBase
								{
									OFFSET 0 0 0
									CHANNELS 3 Zrotation Yrotation Xrotation
									JOINT LeftHandIndex1
									{
										OFFSET 0.77161 -0.00000 -0.00000
										CHANNELS 3 Zrotation Yrotation Xrotation
										End Site
										{
											OFFSET 0.62209 -0.00000 -0.00000
										}
									}
								}
								JOINT LThumb
								{
									OFFSET 0 0 0
									CHANNELS 3 Zrotation Yrotation Xrotation
									End Site
									{
										OFFSET 0.63159 -0.00000 0.63159
									}
								}
							}
						}
					}
				}
				JOINT RightShoulder
				{
					OFFSET 0 0 0
					CHANNELS 3 Zrotation Yrotation Xrotation
					JOINT RightArm
					{
						OFFSET -3.38693 1.28904 -0.07093
						CHANNELS 3 Zrotation Yrotation Xrotation
						JOINT RightForeArm
						{
							OFFSET -5.14182 -0.00000 -0.00000
							CHANNELS 3 Zrotation Yrotation Xrotation
							JOINT RightHand
							{
								OFFSET -3.35565 -0.00000 -0.00000
								CHANNELS 3 Zrotation Yrotation Xrotation
								JOINT RightFingerBase
								{
									OFFSET 0 0 0
									CHANNELS 3 Zrotation Yrotation Xrotation
									JOINT RightHandIndex1
									{
										OFFSET -0.80104 -0.00000 -0.00000
										CHANNELS 3 Zrotation Yrotation Xrotation
										End Site
										{
											OFFSET -0.64582 -0.00000 -0.00000
										}
									}
								}
								JOINT RThumb
								{
									OFFSET 0 0 0
									CHANNELS 3 Zrotation Yrotation Xrotation
									End Site
									{
										OFFSET -0.65568 -0.00000 0.65568
									}
								}
							}
						}
					}
				}
			}
		}
	}
}
MOTION
Frames: 14
Frame Time: .0083333
0.1989 18.1730 -0.6200 2.3219 -1.4933 5.8601 0.0000 0.0000 0.0000 -21.2667 -3.9580 -10.5374 0.8998 6.0454 16.9161 0.4090 7.8737 -17.4431 0.4283 -4.1999 -11.6396 0.0000 0.0000 0.0000 15.4701 3.7736 -13.3502 -1.3658 -7.3966 20.8957 0.0698 -13.7292 -18.6751 -0.2753 3.3749 -9.3244 -1.0140 1.9864 7.8871 -1.3319 2.5201 2.0883 -1.0473 1.2573 -2.2423 -6.3804 -17.8598 1.3707 11.7205 -24.7993 7.0048 3.2418 -12.1721 4.1542 0.0000 -0.0000 0.0000 54.2277 -39.7830 -77.1889 141.6340 -47.0715 -102.7669 -0.0000 0.0000 -43.3215 3.1257 25.3184 1.3378 -7.1250 0.0000 -0.0000 -27.3026 53.1722 -5.8331 0.0000 -0.0000 0.0000 -74.4699 56.2294 -108.7667 -12.1338 20.0050 -2.1479 0.0000 0.0000 26.8800 -0.3399 10.1589 -0.0600 7.1250 -0.0000 -0.0000 18.7417 -20.0383 11.8274
0.2022 18.1756 -0.6177 2.2321 -1.3931 5.8921 0.0000 0.0000 0.0000 -21.1754 -4.0083 -10.4993 0.8891 6.0104 16.8146 0.3981 7.8583 -17.2981 0.4069 -4.0948 -11.3436 0.0000 0.0000 0.0000 15.5604 3.8232 -13.2510 -1.3473 -7.3485 20.7521 0.0759 -13.8206 -18.7363 -0.2452 3.1867 -8.7988 -0.8539 1.9787 7.9684 -1.2876 2.5217 2.0386 -1.0959 1.2574 -2.3339 -6.4744 -17.9735 1.5633 12.0294 -24.9378 6.5285 3.3605 -12.2589 4.0422 0.0000 -0.0000 0.0000 54.2487 -39.8824 -77.4235 141.8394 -46.9416 -102.9171 -0.0000 0.0000 -42.8541 3.4127 25.0257 1.4450 -7.1250 0.0000 -0.0000 -26.8483 52.9630 -5.5812 0.0000 -0.0000 0.0000 -74.2663 55.8290 -108.2118 -12.6109 20.7144 -2.3138 0.0000 0.0000 26.7100 -3.3944 10.8393 -0.6391 7.1250 -0.0000 -0.0000 16.5879 -19.3344 10.6113
0.2066 18.1780 -0.6147 2.1951 -1.3170 5.9577 0.0000 0.0000 0.0000 -21.1469 -4.0736 -10.5045 0.8818 5.9863 16.7448 0.3904 7.8554 -17.2022 0.3901 -4.0105 -11.1063 0.0000 0.0000 0.0000 15.5878 3.8724 -13.2232 -1.3348 -7.3156 20.6539 0.0753 -13.8746 -18.8236 -0.2183 3.0079 -8.3007 -0.7449 1.9777 7.9872 -1.2580 2.5291 1.9906 -1.1290 1.2605 -2.3904 -6.5511 -18.0728 1.7629 12.2919 -25.0587 6.1251 3.4643 -12.3361 3.9425 -0.0000 -0.0000 0.0000 54.2137 -39.9953 -77.6263 142.1471 -46.7451 -103.1417 -0.0000 0.0000 -42.4954 3.6634 25.1196 1.5569 -7.1250 0.0000 -0.0000 -26.6715 53.0905 -5.6265 -0.0000 -0.0000 0.0000 -74.1381 55.4849 -107.7179 -13.0681 21.3869 -2.4781 0.0000 0.0000 26.3800 -6.4286 11.3398 -1.2692 7.1250 -0.0000 -0.0000 14.4649 -18.7576 9.3469
0.2119 18.1802 -0.6136 2.2521 -1.2563 6.0215 0.0000 0.0000 0.0000 -21.2248 -4.1412 -10.5509 0.8800 5.9802 16.7269 0.3918 7.8693 -17.2333 0.3969 -4.0448 -11.2027 0.0000 0.0000 0.0000 15.5076 3.9016 -13.2267 -1.3254 -7.2909 20.5800 0.0828 -13.9504 -18.8441 -0.2079 2.9354 -8.0991 -0.7331 1.9749 8.0228 -1.2643 2.5246 1.9121 -1.1451 1.2580 -2.4905 -6.3157 -18.1499 1.9944 12.2323 -25.1145 5.7256 3.4629 -12.3851 3.7536 0.0000 -0.0000 0.0000 54.1584 -40.1206 -77.7514 142.5002 -46.5168 -103.3983 -0.0000 0.0000 -42.2506 3.8852 25.6180 1.6819 -7.1250 0.0000 -0.0000 -26.7787 53.5732 -5.9802 0.0000 -0.0000 0.0000 -73.9290 55.2602 -107.1173 -13.5214 22.0464 -2.6458 0.0000 0.0000 26.2100 -9.8285 11.9940 -2.0618 7.1250 -0.0000 -0.0000 12.0841 -17.9660 7.9466
0.2170 18.1825 -0.6153 2.2862 -1.2004 6.0305 0.0000 0.0000 0.0000 -21.2723 -4.2232 -10.5617 0.8818 5.9862 16.7445 0.3938 7.8940 -17.2805 0.4052 -4.0864 -11.3198 0.0000 0.0000 0.0000 15.4583 3.8625 -13.2226 -1.3199 -7.2763 20.5366 0.0940 -14.0084 -18.7925 -0.2158 2.9906 -8.2527 -0.7236 1.9777 8.1092 -1.2321 2.5285 1.9042 -1.1212 1.2597 -2.5476 -6.1065 -18.2604 2.0680 12.1360 -25.2192 5.4253 3.4299 -12.4494 3.6227 -0.0000 0.0000 0.0000 54.0490 -40.1928 -77.8010 142.7802 -46.3337 -103.6011 -0.0000 0.0000 -42.0033 4.3256 25.7642 1.8831 -7.1250 0.0000 -0.0000 -26.4556 53.7827 -6.0400 -0.0000 0.0000 0.0000 -73.6826 54.9880 -106.3499 -14.0703 22.8351 -2.8553 0.0000 0.0000 25.9200 -12.7229 12.5990 -2.8194 7.1250 -0.0000 -0.0000 10.0675 -17.1953 6.7469
0.2219 18.1814 -0.6189 2.2897 -1.1188 6.0403 0.0000 0.0000 0.0000 -21.2816 -4.3324 -10.5830 0.8865 6.0018 16.7897 0.3975 7.8604 -17.2934 0.3817 -3.9678 -10.9862 0.0000 0.0000 0.0000 15.4401 3.8330 -13.2423 -1.3204 -7.2777 20.5408 0.1041 -14.0771 -18.7716 -0.2210 3.0262 -8.3517 -0.6809 1.9754 8.1875 -1.1621 2.5304 1.9607 -1.0749 1.2605 -2.5340 -6.2367 -18.4074 2.1458 12.3029 -25.3969 5.0764 3.4946 -12.5514 3.5587 0.0000 -0.0000 0.0000 53.9297 -40.1873 -77.9274 143.0697 -46.1423 -103.8102 -0.0000 0.0000 -41.9836 4.7426 25.8388 2.0709 -7.1250 0.0000 -0.0000 -26.1072 53.9251 -6.0454 0.0000 -0.0000 0.0000 -73.5257 54.6713 -105.6961 -14.6655 23.6781 -3.0904 0.0000 0.0000 25.4400 -14.8031 13.4013 -3.5050 7.1250 -0.0000 -0.0000 8.6271 -16.2374 5.9391
0.2259 18.1794 -0.6239 2.2298 -1.0522 6.0271 0.0000 0.0000 0.0000 -21.2220 -4.3523 -10.6486 0.8978 6.0390 16.8976 0.4002 7.7609 -17.2312 0.3787 -3.9522 -10.9423 0.0000 0.0000 0.0000 15.4909 3.8686 -13.2325 -1.3248 -7.2892 20.5750 0.1030 -14.1015 -18.8228 -0.2123 2.9661 -8.1843 -0.5834 1.9662 8.3016 -1.0929 2.5272 2.0058 -1.0611 1.2584 -2.5496 -6.3611 -18.5594 2.4772 12.5126 -25.5714 4.5605 3.6049 -12.6673 3.4096 0.0000 -0.0000 0.0000 53.7839 -40.2312 -77.9613 143.3634 -45.9460 -104.0217 -0.0000 0.0000 -41.8421 4.9838 26.0736 2.1950 -7.1250 0.0000 -0.0000 -26.0293 54.1792 -6.1922 0.0000 -0.0000 0.0000 -73.4590 54.4946 -105.3791 -15.2754 24.5284 -3.3395 0.0000 0.0000 24.9600 -17.1738 14.2454 -4.3490 7.1250 -0.0000 -0.0000 7.0125 -15.1746 4.9703
0.2291 18.1769 -0.6320 2.2715 -0.9930 6.0321 0.0000 0.0000 0.0000 -21.2677 -4.3959 -10.7825 0.9140 6.0916 17.0505 0.3975 7.7204 -17.1608 0.3964 -4.0423 -11.1958 0.0000 0.0000 0.0000 15.4329 3.9037 -13.3016 -1.3353 -7.3171 20.6582 0.1065 -14.1588 -18.8661 -0.2110 2.9572 -8.1596 -0.5745 1.9618 8.4035 -1.0853 2.5214 2.0560 -1.0604 1.2554 -2.5542 -6.3361 -18.6645 2.6931 12.6571 -25.6880 4.1984 3.6698 -12.7439 3.2936 0.0000 -0.0000 0.0000 53.7242 -40.3171 -77.9273 143.5790 -45.8006 -104.1764 -0.0000 0.0000 -41.4890 5.1357 26.2117 2.2733 -7.1250 0.0000 -0.0000 -25.9741 54.3307 -6.2767 0.0000 -0.0000 0.0000 -73.2649 54.3740 -104.9492 -15.9588 25.4647 -3.6282 0.0000 0.0000 24.3200 -19.7685 15.0587 -5.3345 7.1250 -0.0000 -0.0000 5.2745 -14.0732 3.8503
0.2341 18.1744 -0.6402 2.2734 -0.9238 6.0450 0.0000 0.0000 0.0000 -21.2715 -4.5017 -10.9249 0.9337 6.1551 17.2352 0.4018 7.6923 -17.1854 0.4034 -4.0774 -11.2946 0.0000 0.0000 0.0000 15.4083 3.8818 -13.4333 -1.3535 -7.3647 20.8004 0.1052 -14.1739 -18.9043 -0.2110 2.9574 -8.1602 -0.5161 1.9593 8.4702 -1.0425 2.5241 2.1221 -1.0502 1.2566 -2.5222 -6.3451 -18.7368 2.7749 12.7354 -25.7785 4.0764 3.6972 -12.7949 3.2642 -0.0000 0.0000 0.0000 53.6361 -40.3819 -77.9365 143.8016 -45.6492 -104.3358 -0.0000 0.0000 -41.1693 5.1472 26.5686 2.3071 -7.1250 0.0000 -0.0000 -26.1993 54.6518 -6.5488 -0.0000 0.0000 0.0000 -73.1042 54.2886 -104.5166 -16.6642 26.4129 -3.9368 0.0000 0.0000 23.6600 -22.2865 15.8354 -6.3814 7.1250 -0.0000 -0.0000 3.6185 -12.9627 2.7202
0.2408 18.1714 -0.6491 2.2624 -0.8824 6.0669 0.0000 0.0000 0.0000 -21.2689 -4.6199 -11.0834 0.9555 6.2245 17.4373 0.4103 7.7137 -17.3087 0.4274 -4.1955 -11.6274 0.0000 0.0000 0.0000 15.3805 3.8343 -13.6383 -1.3818 -7.4381 21.0199 0.0884 -14.0755 -18.9617 -0.1996 2.8768 -7.9359 -0.4485 1.9634 8.5366 -0.9926 2.5366 2.1860 -1.0390 1.2627 -2.4921 -6.3488 -18.8084 2.9043 12.7778 -25.8662 3.9603 3.7200 -12.8467 3.2235 -0.0000 0.0000 0.0000 53.5455 -40.4587 -77.9001 143.9711 -45.5330 -104.4569 -0.0000 0.0000 -40.8804 5.1078 26.9209 2.3175 -7.1250 0.0000 -0.0000 -26.4749 54.9582 -6.8290 -0.0000 0.0000 0.0000 -73.0235 54.2800 -104.3144 -17.3796 27.3555 -4.2603 0.0000 0.0000 23.1300 -24.6083 16.7305 -7.5110 7.1250 -0.0000 -0.0000 2.1355 -11.6945 1.6595
0.2464 18.1668 -0.6599 2.3190 -0.8557 6.0703 0.0000 0.0000 0.0000 -21.3380 -4.6687 -11.2836 0.9848 6.3165 17.7056 0.4256 7.6414 -17.4234 0.4331 -4.2230 -11.7049 0.0000 0.0000 0.0000 15.2859 3.7941 -13.8628 -1.4173 -7.5290 21.2923 0.0822 -14.0326 -18.9737 -0.2212 3.0276 -8.3557 -0.4562 1.9666 8.6587 -0.9640 2.5399 2.2433 -1.0088 1.2642 -2.5020 -6.2951 -18.8715 3.0331 12.7339 -25.9359 3.8648 3.7161 -12.8894 3.1687 0.0000 -0.0000 0.0000 53.4549 -40.5359 -77.7429 144.0362 -45.4882 -104.5034 -0.0000 0.0000 -40.7056 5.2998 26.9463 2.4071 -7.1250 0.0000 -0.0000 -26.3073 55.0176 -6.8202 0.0000 -0.0000 0.0000 -72.9266 54.3918 -104.2150 -18.1884 28.3978 -4.6385 0.0000 0.0000 22.8100 -26.8410 17.5648 -8.6828 7.1250 -0.0000 -0.0000 0.7416 -10.4481 0.5949
0.2500 18.1602 -0.6749 2.3634 -0.8340 6.0621 0.0000 0.0000 0.0000 -21.3760 -4.7103 -11.5313 1.0225 6.4326 18.0449 0.4515 7.4237 -17.5312 0.3820 -3.9693 -10.9904 0.0000 0.0000 0.0000 15.2082 3.8207 -14.0978 -1.4588 -7.6338 21.6072 0.0647 -13.9527 -19.0668 -0.2261 3.0605 -8.4473 -0.4877 1.9653 8.8439 -0.9134 2.5348 2.2888 -0.9447 1.2616 -2.5612 -6.2244 -18.9270 3.1199 12.6124 -26.0002 3.8849 3.6811 -12.9244 3.1424 -0.0000 -0.0000 0.0000 53.3200 -40.6060 -77.4575 144.0525 -45.4770 -104.5150 -0.0000 0.0000 -40.5358 5.8210 26.6891 2.6217 -7.1250 0.0000 -0.0000 -25.6311 54.8868 -6.5429 -0.0000 -0.0000 0.0000 -72.7779 54.5748 -103.9053 -19.1226 29.5707 -5.0912 0.0000 0.0000 22.3000 -29.1105 18.4015 -9.9695 7.1250 -0.0000 -0.0000 -0.6410 -9.1347 -0.5311
0.2553 18.1524 -0.6931 2.3747 -0.7760 6.0777 0.0000 0.0000 0.0000 -21.3795 -4.8298 -11.8301 1.0669 6.5665 18.4371 0.4587 7.3431 -17.5429 0.4017 -4.0692 -11.2714 0.0000 0.0000 0.0000 15.1633 3.8240 -14.3888 -1.5061 -7.7510 21.9602 0.0487 -13.8893 -19.1659 -0.2128 2.9699 -8.1950 -0.5003 1.9314 9.0112 -0.8374 2.4893 2.3315 -0.8597 1.2387 -2.6140 -6.2063 -18.9376 3.2470 12.4779 -26.0114 3.9669 3.6536 -12.9330 3.1283 -0.0000 -0.0000 0.0000 53.1733 -40.7271 -77.2163 144.0454 -45.4819 -104.5099 -0.0000 0.0000 -40.2450 5.8968 26.7576 2.6623 -7.1250 0.0000 -0.0000 -25.6038 54.9627 -6.5839 -0.0000 -0.0000 0.0000 -72.6673 54.8083 -103.5554 -20.1437 30.8150 -5.6048 0.0000 0.0000 21.6100 -31.1374 19.3372 -11.3123 7.1250 -0.0000 -0.0000 -1.8183 -7.6958 -1.5592
0.2625 18.1422 -0.7116 2.3502 -0.7036 6.0722 0.0000 0.0000 0.0000 -21.3484 -5.0822 -12.0817 1.1185 6.7184 18.8838 0.4635 7.3317 -17.5888 0.3855 -3.9872 -11.0406 0.0000 0.0000 0.0000 15.1546 3.7320 -14.6852 -1.5551 -7.8703 22.3210 0.0295 -13.7656 -19.2158 -0.2052 2.9168 -8.0472 -0.4370 1.8796 9.1865 -0.7728 2.4267 2.3968 -0.8265 1.2072 -2.6441 -6.1638 -18.9343 3.3867 12.3378 -26.0014 4.0371 3.6262 -12.9319 3.1029 0.0000 -0.0000 0.0000 53.0706 -40.8640 -77.0260 144.0505 -45.4784 -104.5135 -0.0000 0.0000 -39.9729 5.7628 26.9149 2.6157 -7.1250 0.0000 -0.0000 -25.8393 55.0780 -6.7253 0.0000 -0.0000 0.0000 -72.7561 55.0872 -103.6887 -21.0628 31.9016 -6.0831 0.0000 0.0000 21.2000 -33.2170 20.5645 -12.9532 7.1250 -0.0000 -0.0000 -2.9454 -5.8532 -2.6332
